# xmcd
#
# Track frame offsets:
#	150
#	14062
#	27659
#	38787
#	50176
#	60292
#	68347
#	81310
#	95319
#	110779
#	122110
#	134855
#	145099
#	159609
#	172487
#	183064
#	193910
#	207795
#	220101
#	229322
#	239569
#	253139
#	264454
#	274720
#	286997
#
# Disc length: 3942 seconds
#
# Revision: 1
# Processed by: cddbd v1.5PL3 Copyright (c) Steve Scherf et al.
# Submitted via: audiograbber 1.82.02
#
DISCID=8a0f6419
DTITLE=Various Artist - Group Classics  Vol 4
DYEAR=1900
DGENRE=
TTITLE0=Dominoes - These Foolish Things
TTITLE1=Chimes - Dearest Darling
TTITLE2=Hearts (Lee Andrews and the) - The Fairest
TTITLE3=Pretenders - I Hear Bells
TTITLE4=Unknown Group - Love Is A Game
TTITLE5=Johnnie and Joe - My Dearest, My Love
TTITLE6=Five Owls - I Like Moonshine
TTITLE7=Emeralds - School Boys Love
TTITLE8=Nutones - Believe
TTITLE9=Unknown Group - Come Back To Me
TTITLE10=Clusters - Sunday Kind Of Love
TTITLE11=Dials - Over The Rainbow
TTITLE12=Fascinators - Don't Give It Away
TTITLE13=Emeralds - Up On The Mountain
TTITLE14=Valtones - A Girl Like You
TTITLE15=Darts - My Love
TTITLE16=Fascinators - Sweet Baby
TTITLE17=Deltones - Crazy Lover
TTITLE18=Uniques - Hey Little Cupid
TTITLE19=Unknown Group - Love Me
TTITLE20=Royal Notes - Three Speed Girl
TTITLE21=Pretenders - I Hear Bells(Cha-Cha)
TTITLE22=Unknown Group - Sneaky Old Love
TTITLE23=Pearl Devines - You've Been Gone
TTITLE24=Hearts (Lee Andrews and the) - I Miss My Baby
EXTD=
EXTT0=
EXTT1=
EXTT2=
EXTT3=
EXTT4=
EXTT5=
EXTT6=
EXTT7=
EXTT8=
EXTT9=
EXTT10=
EXTT11=
EXTT12=
EXTT13=
EXTT14=
EXTT15=
EXTT16=
EXTT17=
EXTT18=
EXTT19=
EXTT20=
EXTT21=
EXTT22=
EXTT23=
EXTT24=
PLAYORDER=
